<?xml version="1.0" encoding="UTF-8" standalone="no"?>
<!DOCTYPE svg PUBLIC "-//W3C//DTD SVG 1.1//EN" "http://www.w3.org/Graphics/SVG/1.1/DTD/svg11.dtd">
<svg version="1.1" xmlns="http://www.w3.org/2000/svg" xmlns:xlink="http://www.w3.org/1999/xlink" preserveAspectRatio="xMidYMid meet" viewBox="0 0 502 310" width="502" height="310"><defs><path d="M38.18 213.88C27.42 201.02 13.76 180.68 6.58 166.62C6.2 165.88 4.31 162.19 0.9 155.55C4.31 148.97 6.2 145.31 6.58 144.58C34.19 90.44 82.84 46.77 142.15 22.64C176.24 8.68 206.74 2.2 241.83 1.3C281.4 0.2 313.2 5.49 350.88 19.15C364.04 23.93 391.65 37.49 402.71 44.47C443.38 70.4 475.08 104.7 495.72 145.28C496.06 145.96 497.79 149.35 500.9 155.45C498.39 160.54 496.99 163.36 496.71 163.93C458.83 240.31 383.08 292.95 290.07 307.61C277.91 309.5 235.25 310.5 223.09 309.11C149.42 300.73 82.04 266.03 38.18 213.88ZM309.01 227.44C324.07 215.48 336.43 195.93 341.01 176.99C344.1 164.53 344.1 146.58 341.11 134.21C328.15 81.67 274.33 51.25 222.79 67.51C193.58 76.78 170.76 100.21 161.98 130.13C158.2 142.89 157.5 160.34 160.29 173.5C166.37 202.91 185.71 227.34 212.92 239.91C219.4 242.9 230.96 246.29 239.74 247.68C246.31 248.68 265.85 247.38 273.63 245.39C284.39 242.6 299.94 234.72 309.01 227.44Z" id="a3gTwliSyp"></path><path d="M223.89 206.2C215.41 201.92 203.75 189.95 199.56 181.28C183.71 148.57 200.56 110.58 235.75 100.11C244.42 97.52 259.57 97.72 268.14 100.71C286.79 106.99 299.84 120.05 305.53 137.9C309.21 149.27 309.01 163.03 305.23 174C299.05 191.75 285.69 204.91 268.54 210.29C262.36 212.29 249.11 213.58 243.72 212.79C237.94 211.89 229.77 209.2 223.89 206.2Z" id="a4v9utPC8h"></path></defs><g><g><g><use xlink:href="#a3gTwliSyp" opacity="1" fill="#ffffff" fill-opacity="1"></use><g><use xlink:href="#a3gTwliSyp" opacity="1" fill-opacity="0" stroke="#000000" stroke-width="1" stroke-opacity="0"></use></g></g><g><use xlink:href="#a4v9utPC8h" opacity="1" fill="#ffffff" fill-opacity="1"></use><g><use xlink:href="#a4v9utPC8h" opacity="1" fill-opacity="0" stroke="#000000" stroke-width="1" stroke-opacity="0"></use></g></g></g></g></svg>