<!DOCTYPE svg PUBLIC "-//W3C//DTD SVG 20010904//EN" "http://www.w3.org/TR/2001/REC-SVG-20010904/DTD/svg10.dtd">
<svg version="1.0" xmlns="http://www.w3.org/2000/svg" width="550px" height="550px" viewBox="0 0 5500 5500" preserveAspectRatio="xMidYMid meet">
<g id="layer101" fill="#ffffff" stroke="none">
 <path d="M2385 5264 c-208 -33 -388 -167 -482 -363 -52 -107 -73 -198 -73 -316 0 -204 75 -376 225 -513 250 -229 616 -230 867 -3 160 145 228 299 228 515 0 125 -17 211 -56 289 -97 191 -243 315 -436 371 -58 17 -218 28 -273 20z"/>
 <path d="M1974 3731 c-51 -31 -58 -67 -51 -290 7 -210 18 -285 66 -425 59 -171 137 -288 636 -952 169 -225 225 -342 225 -473 0 -169 -84 -319 -211 -375 -162 -74 -369 -42 -468 70 -57 65 -83 130 -106 267 l-6 37 93 0 c108 0 147 17 175 75 16 34 15 40 -41 302 -31 147 -64 278 -72 290 -35 54 -34 54 -572 51 -416 -3 -501 -5 -519 -18 -34 -22 -67 -92 -116 -246 -57 -178 -68 -258 -62 -442 10 -270 30 -388 94 -552 90 -231 162 -344 315 -495 317 -313 714 -464 1161 -441 265 14 449 58 650 157 251 123 430 278 582 504 158 234 233 534 220 872 -9 223 -50 382 -154 585 -78 154 -155 264 -422 600 -130 165 -257 332 -283 372 -58 88 -68 134 -68 305 0 154 -10 195 -53 221 -31 19 -54 20 -507 20 -451 0 -477 -1 -506 -19z"/>
 </g>

</svg>