<!DOCTYPE svg PUBLIC "-//W3C//DTD SVG 20010904//EN" "http://www.w3.org/TR/2001/REC-SVG-20010904/DTD/svg10.dtd">
<svg version="1.0" xmlns="http://www.w3.org/2000/svg" width="550px" height="550px" viewBox="0 0 5500 5500" preserveAspectRatio="xMidYMid meet">
<g id="layer101" fill="#ffffff" stroke="none">
 <path d="M2515 5296 c-156 -31 -259 -90 -379 -217 -160 -170 -220 -399 -162 -616 87 -326 345 -523 684 -523 162 0 266 38 380 137 142 125 230 304 248 509 7 76 -12 194 -47 293 -63 181 -231 350 -398 402 -85 26 -234 33 -326 15z"/>
 <path d="M2261 3772 c-76 -38 -63 75 -158 -1406 -46 -736 -82 -1340 -80 -1343 3 -2 130 -25 283 -51 l279 -47 -400 -5 c-220 -3 -401 -7 -402 -8 -49 -51 -63 -71 -68 -92 -5 -24 98 -485 124 -551 5 -15 22 -36 37 -48 27 -21 29 -21 662 -21 618 0 635 1 667 20 46 28 59 67 56 169 -3 154 -130 3225 -135 3273 -6 58 -27 91 -71 112 -28 14 -85 16 -397 16 -326 0 -367 -2 -397 -18z"/>
 </g>

</svg>